<svg width="18" height="18" viewBox="0 0 18 18" fill="none" xmlns="http://www.w3.org/2000/svg">
<path d="M15 9V16.5H3V9" stroke="#161617" stroke-linecap="round" stroke-linejoin="round"/>
<path d="M16.5 5.25H1.5V9H16.5V5.25Z" stroke="#161617" stroke-linecap="round" stroke-linejoin="round"/>
<path d="M9 16.5V5.25" stroke="#161617" stroke-linecap="round" stroke-linejoin="round"/>
<path d="M9 5.25H5.625C5.12772 5.25 4.65081 5.05246 4.29917 4.70082C3.94754 4.34919 3.75 3.87228 3.75 3.375C3.75 2.87772 3.94754 2.40081 4.29917 2.04917C4.65081 1.69754 5.12772 1.5 5.625 1.5C8.25 1.5 9 5.25 9 5.25Z" stroke="#161617" stroke-linecap="round" stroke-linejoin="round"/>
<path d="M9 5.25H12.375C12.8723 5.25 13.3492 5.05246 13.7008 4.70082C14.0525 4.34919 14.25 3.87228 14.25 3.375C14.25 2.87772 14.0525 2.40081 13.7008 2.04917C13.3492 1.69754 12.8723 1.5 12.375 1.5C9.75 1.5 9 5.25 9 5.25Z" stroke="#161617" stroke-linecap="round" stroke-linejoin="round"/>
</svg>
